<svg xmlns="http://www.w3.org/2000/svg" height="512pt" version="1.1" viewBox="0 -38 512.00001 512" width="512pt">
<g id="surface1">
<path d="M 293.070312 302.847656 L 292.457031 306.558594 L 296.210938 306.332031 C 299.667969 306.125 303.242188 305.859375 307.132812 305.515625 L 309.511719 305.308594 L 309.839844 302.945312 C 311.988281 287.574219 310.160156 271.808594 304.558594 257.355469 L 303.671875 255.074219 L 301.261719 255.480469 C 298.234375 255.992188 295.445312 256.375 292.734375 256.65625 L 289.089844 257.027344 L 290.175781 260.527344 C 294.402344 274.140625 295.402344 288.773438 293.070312 302.847656 Z M 293.070312 302.847656 " style=" stroke:none;fill-rule:nonzero;fill:rgb(15.686275%,56.078431%,78.823529%);fill-opacity:1;" />
<path d="M 342.40625 237.234375 L 344.808594 239.507812 C 347.714844 242.253906 350.914062 244.945312 354.316406 247.503906 L 355.941406 248.707031 L 357.667969 247.675781 C 358.132812 247.398438 358.597656 247.121094 359.085938 246.867188 C 360.871094 245.9375 362.851562 245.191406 364.984375 244.65625 L 369.644531 243.480469 L 355.054688 226.226562 Z M 342.40625 237.234375 " style=" stroke:none;fill-rule:nonzero;fill:rgb(35.686275%,81.568627%,98.823529%);fill-opacity:1;" />
<path d="M 333.964844 268.277344 C 331.828125 261.886719 327.730469 257.035156 322.726562 254.976562 C 320.527344 254.066406 318.046875 253.621094 315.152344 253.621094 C 311.90625 253.621094 308.628906 254.167969 305.273438 254.773438 L 301.730469 255.417969 L 303.003906 258.785156 C 308.144531 272.40625 309.878906 287.269531 308.015625 301.765625 L 307.539062 305.5 L 311.285156 305.132812 C 314.480469 304.820312 317.898438 304.449219 322.039062 303.96875 C 326.382812 303.464844 330.507812 302.777344 333.230469 299.957031 C 336.453125 296.617188 336.542969 291.390625 336.355469 286.226562 C 336.128906 280.238281 335.894531 274.046875 333.964844 268.277344 Z M 333.964844 268.277344 " style=" stroke:none;fill-rule:nonzero;fill:rgb(35.686275%,81.568627%,98.823529%);fill-opacity:1;" />
<path d="M 291.050781 256.855469 L 288.691406 257.035156 C 285.019531 257.320312 281.273438 257.464844 277.558594 257.464844 C 277.554688 257.464844 277.554688 257.464844 277.550781 257.464844 C 235.398438 257.460938 193.632812 239.40625 165.824219 209.160156 C 165.699219 209.027344 165.675781 208.878906 165.683594 208.777344 C 165.6875 208.675781 165.71875 208.527344 165.847656 208.410156 C 165.976562 208.289062 166.121094 208.265625 166.214844 208.265625 C 166.324219 208.265625 166.480469 208.292969 166.609375 208.4375 C 178.132812 220.96875 191.980469 231.410156 207.765625 239.46875 L 214.296875 242.804688 L 211.972656 235.847656 C 204.632812 213.867188 194.820312 192.730469 182.808594 173.027344 C 179.296875 167.257812 174.835938 161.238281 168.429688 160.347656 C 167.886719 160.269531 167.324219 160.230469 166.757812 160.230469 C 162.722656 160.230469 158.796875 162.140625 155.429688 163.929688 C 111 187.546875 76.976562 230.765625 64.414062 279.539062 L 64.261719 280.121094 L 64.351562 280.71875 C 66.652344 296.511719 68.824219 312.261719 70.804688 327.527344 C 71.347656 331.738281 72.023438 336.980469 69.597656 341.316406 C 68.332031 343.589844 66.332031 345.402344 63.492188 346.855469 L 62.054688 347.59375 L 61.878906 349.195312 C 60.085938 365.3125 61.007812 380.144531 62.296875 396.476562 C 62.675781 401.363281 63.304688 406.441406 66.425781 410.09375 C 70.59375 414.976562 77.871094 415.601562 83.742188 415.601562 C 84.636719 415.601562 85.523438 415.585938 86.398438 415.566406 L 125.425781 414.664062 L 125.605469 414.660156 L 186.328125 413.257812 L 185.316406 354.640625 L 182.433594 354.578125 C 170.851562 354.328125 159.273438 353.386719 148.023438 351.769531 C 147.75 351.730469 147.550781 351.492188 147.5625 351.214844 L 149.976562 302.339844 C 149.988281 302.058594 150.222656 301.839844 150.511719 301.839844 C 157.03125 301.917969 164.003906 301.953125 171.828125 301.953125 C 178.15625 301.953125 184.339844 301.929688 190.417969 301.90625 L 201.066406 301.875 L 201.863281 295.988281 C 184.785156 291.222656 163.347656 284.015625 149.085938 270.441406 L 147.699219 269.125 L 146.355469 267.664062 C 143.480469 264.546875 141.039062 261.21875 139.089844 257.769531 C 139 257.609375 139.011719 257.464844 139.039062 257.371094 C 139.066406 257.273438 139.132812 257.140625 139.292969 257.050781 C 139.375 257 139.460938 256.980469 139.554688 256.980469 C 139.628906 256.980469 139.882812 257 140.023438 257.25 C 154.722656 283.28125 189.609375 292 220.386719 299.695312 C 220.386719 299.695312 225.128906 300.882812 226.386719 301.203125 C 227.347656 301.449219 228.296875 301.675781 229.253906 301.898438 L 229.59375 301.976562 L 230.113281 301.976562 L 230.222656 301.984375 L 230.335938 301.984375 C 230.371094 301.984375 230.445312 302.007812 230.550781 302.0625 L 230.9375 302.28125 L 231.371094 302.375 C 245.285156 305.445312 260.238281 306.941406 277.085938 306.941406 C 281.890625 306.941406 286.921875 306.8125 292.042969 306.5625 L 294.4375 306.445312 L 294.851562 304.085938 C 297.496094 289.113281 296.429688 273.558594 291.773438 259.105469 Z M 291.050781 256.855469 " style=" stroke:none;fill-rule:nonzero;fill:rgb(35.686275%,81.568627%,98.823529%);fill-opacity:1;" />
<path d="M 471.980469 220.519531 L 471.976562 220.519531 L 470.664062 275.511719 L 470.671875 275.511719 L 470.144531 297.441406 C 470.144531 297.441406 491.859375 297.269531 492.269531 297.269531 C 493 297.269531 493.796875 297.28125 494.640625 297.324219 L 497.640625 297.476562 L 498.769531 274.320312 L 498.773438 274.320312 L 501.359375 221.449219 L 502.457031 199.105469 L 472.5 198.730469 Z M 471.980469 220.519531 " style=" stroke:none;fill-rule:nonzero;fill:rgb(79.607843%,89.803922%,50.196078%);fill-opacity:1;" />
<path d="M 432.707031 203.542969 L 471.363281 201.800781 L 471.871094 180.054688 L 432.113281 180.09375 Z M 432.707031 203.542969 " style=" stroke:none;fill-rule:nonzero;fill:rgb(68.627451%,47.45098%,47.45098%);fill-opacity:1;" />
<path d="M 434.738281 283.082031 L 434.734375 283.082031 L 435.105469 297.710938 L 469.070312 297.457031 L 469.386719 284.289062 L 469.390625 284.289062 L 471.105469 212.148438 L 433 214.664062 Z M 434.738281 283.082031 " style=" stroke:none;fill-rule:nonzero;fill:rgb(68.627451%,47.45098%,47.45098%);fill-opacity:1;" />
<path d="M 284.707031 94.402344 C 287.609375 94.617188 290.347656 94.820312 293.109375 94.820312 C 296.902344 94.820312 299.984375 94.425781 302.816406 93.570312 C 304.195312 93.152344 305.535156 92.609375 306.800781 91.945312 L 307.445312 91.609375 L 307.863281 91.015625 C 307.960938 90.875 308.050781 90.839844 308.046875 90.839844 L 308.878906 90.730469 L 309.472656 90.316406 C 316.703125 85.332031 321.488281 76.613281 321.964844 67.566406 C 322.542969 56.765625 317.511719 45.289062 308.511719 36.867188 C 303.324219 32.007812 296.875 27.984375 289.339844 24.910156 C 285.65625 23.410156 281.921875 22.554688 277.933594 21.640625 C 274.644531 20.894531 271.246094 20.125 267.957031 18.929688 C 266.808594 18.507812 265.707031 18.085938 264.578125 17.644531 C 260.28125 15.992188 256.570312 14.5625 251.386719 14.507812 C 251.070312 14.503906 250.753906 14.5 250.441406 14.5 C 246.683594 14.5 242.816406 14.898438 238.945312 15.6875 C 236.210938 16.253906 231.21875 17.484375 229.355469 18.234375 L 228.773438 18.464844 L 228.332031 18.914062 C 228.273438 18.972656 228.171875 19.046875 228.019531 19.058594 C 227.984375 19.058594 227.953125 19.0625 227.917969 19.0625 C 227.652344 19.042969 227.453125 18.832031 227.4375 18.550781 L 227.261719 15.726562 L 227.234375 15.726562 C 227.042969 13.5625 226.679688 11.339844 225.789062 9.367188 C 224.40625 6.296875 221.765625 4.21875 219.011719 4.078125 L 218.796875 4.074219 C 215.441406 4.074219 212.726562 6.789062 211.523438 9.476562 C 210.121094 12.601562 210.039062 16.28125 209.960938 19.566406 C 209.957031 19.796875 209.792969 20.007812 209.582031 20.066406 C 209.53125 20.082031 209.476562 20.089844 209.429688 20.089844 C 209.246094 20.089844 209.078125 19.996094 208.980469 19.847656 L 203.484375 11.355469 C 202.851562 10.394531 202.34375 9.671875 201.605469 9.164062 C 201.003906 8.742188 200.265625 8.519531 199.46875 8.519531 C 197.933594 8.519531 196.351562 9.320312 195.460938 10.523438 C 194.128906 12.28125 193.796875 14.910156 194.570312 17.554688 C 195.285156 20.023438 196.816406 22.285156 198.152344 24.265625 C 198.242188 24.402344 198.265625 24.582031 198.214844 24.746094 C 198.167969 24.894531 198.046875 25.019531 197.902344 25.078125 C 197.226562 25.339844 196.53125 25.464844 195.773438 25.464844 C 193.628906 25.464844 191.371094 24.402344 189.558594 23.554688 L 189.191406 23.378906 C 187.421875 22.550781 185.773438 22.109375 184.429688 22.109375 C 183.261719 22.109375 182.296875 22.433594 181.5625 23.074219 C 179.648438 24.738281 180.105469 28.035156 181.710938 29.953125 C 183.464844 32.046875 186.230469 33.074219 188.691406 33.988281 C 188.910156 34.070312 189.058594 34.296875 189.046875 34.511719 C 189.03125 34.75 188.859375 34.953125 188.628906 35.007812 C 171.503906 39.125 160.832031 55.703125 157.851562 70.308594 C 155.703125 80.878906 156.308594 92.484375 159.703125 105.773438 C 160.054688 107.167969 160.390625 108.59375 160.714844 110.035156 C 162.582031 118.171875 164.507812 126.585938 172.472656 130.632812 C 175.289062 132.058594 178.378906 132.78125 181.652344 132.78125 C 187.949219 132.78125 194.273438 130.035156 199.007812 125.246094 L 200.542969 123.6875 L 199.53125 121.75 C 199.433594 121.566406 199.347656 121.386719 199.25 121.164062 C 196.246094 114.757812 197.742188 106.277344 203.050781 99.570312 C 206.679688 94.996094 211.3125 92.046875 216.105469 91.265625 C 216.890625 91.136719 217.6875 91.074219 218.542969 91.074219 C 223.394531 91.074219 227.820312 93.375 230.097656 97.078125 C 233.152344 102.050781 231.925781 108.265625 230.355469 112.621094 C 229.726562 114.390625 228.957031 116.140625 228.210938 117.832031 L 228.105469 118.0625 C 226.773438 121.105469 225.511719 123.980469 224.855469 127.117188 C 223.953125 131.464844 224.46875 137.617188 228.898438 140.632812 C 230.332031 141.609375 232.066406 142.125 233.925781 142.125 C 237.953125 142.125 242.382812 139.707031 244.933594 136.109375 C 248.359375 131.308594 249.28125 125.46875 250.253906 119.300781 L 250.453125 118.0625 C 251.511719 111.449219 253.121094 104.703125 257.683594 100.179688 C 261.878906 96.023438 268.125 94 276.773438 94 C 277.769531 94 278.808594 94.027344 279.875 94.082031 C 281.464844 94.164062 283.066406 94.28125 284.707031 94.402344 Z M 284.707031 94.402344 " style=" stroke:none;fill-rule:nonzero;fill:rgb(68.627451%,47.45098%,47.45098%);fill-opacity:1;" />
<path d="M 386.445312 249.125 C 382.265625 246.402344 377.070312 244.902344 371.8125 244.902344 C 367.46875 244.902344 363.234375 245.910156 359.578125 247.816406 C 356.988281 249.15625 354.707031 250.875 352.289062 252.695312 L 352.097656 252.839844 C 350.226562 254.257812 348.289062 255.726562 346.203125 256.988281 C 342.832031 259.023438 339.371094 260.15625 336.195312 260.269531 L 331.5625 260.433594 L 333.609375 264.59375 C 334.132812 265.660156 334.59375 266.785156 334.976562 267.9375 C 336.972656 273.921875 337.203125 280.199219 337.425781 286.320312 C 337.507812 288.640625 337.621094 291.820312 336.960938 294.808594 L 336.148438 298.488281 L 377.742188 298.160156 L 378.394531 297.808594 C 378.515625 297.742188 378.628906 297.675781 378.695312 297.625 C 388.761719 292.695312 398.015625 281.289062 398.523438 273.15625 C 399.109375 263.863281 394.257812 254.207031 386.445312 249.125 Z M 386.445312 249.125 " style=" stroke:none;fill-rule:nonzero;fill:rgb(100%,82.352941%,73.333333%);fill-opacity:1;" />
<path d="M 207.277344 163.835938 C 215.941406 172.359375 226.085938 179.410156 235.898438 186.230469 C 240.875 189.695312 246.519531 193.621094 252.949219 194.4375 C 253.722656 194.53125 254.511719 194.578125 255.296875 194.578125 C 259.996094 194.578125 264.691406 192.839844 268.179688 189.804688 C 270.417969 187.855469 272.136719 185.496094 273.980469 182.96875 C 274.917969 181.671875 275.847656 180.402344 276.855469 179.175781 C 280.597656 174.632812 284.730469 172.226562 288.832031 172.21875 C 290.835938 172.21875 292.757812 172.800781 294.664062 173.375 L 294.851562 173.429688 C 295.851562 173.730469 296.886719 174.039062 297.90625 174.234375 C 298.585938 174.367188 299.28125 174.433594 299.964844 174.433594 C 302.605469 174.433594 304.613281 173.46875 305.492188 171.773438 C 306.253906 170.28125 306.140625 168.355469 305.132812 165.707031 C 304.542969 164.160156 303.851562 162.648438 303.007812 160.867188 C 301.0625 156.707031 299.226562 152.777344 299.398438 148.328125 C 299.550781 144.414062 301.308594 140.839844 303.03125 137.335938 C 303.378906 136.636719 303.722656 135.933594 304.0625 135.21875 C 309.714844 123.246094 311.421875 109.394531 308.867188 96.21875 L 308.179688 92.664062 L 304.816406 94 C 304.246094 94.226562 303.671875 94.429688 303.125 94.597656 C 300.195312 95.480469 297.011719 95.894531 293.109375 95.894531 C 290.292969 95.894531 287.410156 95.679688 284.597656 95.46875 C 283.003906 95.347656 281.410156 95.234375 279.820312 95.152344 C 278.785156 95.101562 277.765625 95.074219 276.796875 95.074219 C 268.421875 95.074219 262.417969 96.992188 258.441406 100.9375 C 253.863281 105.46875 252.460938 112.242188 251.511719 118.222656 L 251.308594 119.464844 C 250.363281 125.480469 249.386719 131.699219 245.8125 136.734375 C 243.042969 140.605469 238.25 143.207031 233.882812 143.207031 C 231.8125 143.207031 229.933594 142.640625 228.292969 141.523438 C 223.773438 138.433594 222.929688 132.402344 223.644531 127.789062 C 223.699219 127.480469 223.75 127.179688 223.804688 126.898438 C 224.496094 123.632812 225.851562 120.542969 227.183594 117.503906 C 228.039062 115.574219 228.742188 113.964844 229.351562 112.261719 C 230.574219 108.894531 232.175781 102.511719 229.179688 97.644531 C 227.140625 94.308594 222.925781 92.15625 218.445312 92.15625 C 217.71875 92.15625 216.988281 92.214844 216.273438 92.328125 C 211.757812 93.058594 207.359375 95.867188 203.890625 100.238281 C 199.746094 105.472656 197 113.835938 200.214844 120.722656 C 202.109375 124.765625 204.914062 127.488281 207.914062 128.199219 C 208.429688 128.320312 208.953125 128.382812 209.476562 128.382812 C 211.195312 128.382812 212.894531 127.726562 214.523438 126.433594 C 214.625 126.351562 214.738281 126.3125 214.863281 126.3125 C 214.960938 126.3125 215.140625 126.335938 215.277344 126.511719 C 215.390625 126.65625 215.402344 126.8125 215.394531 126.925781 C 215.382812 127.011719 215.34375 127.152344 215.195312 127.269531 C 213.375 128.714844 211.460938 129.449219 209.507812 129.449219 C 208.894531 129.449219 208.277344 129.375 207.664062 129.230469 C 206.101562 128.867188 204.539062 127.988281 203.136719 126.691406 L 201.085938 124.789062 L 199.046875 126.707031 C 196.539062 129.058594 193.660156 130.886719 190.480469 132.125 L 187.804688 133.171875 L 188.730469 135.890625 C 192.035156 145.574219 198.273438 154.976562 207.277344 163.835938 Z M 207.277344 163.835938 " style=" stroke:none;fill-rule:nonzero;fill:rgb(100%,82.352941%,73.333333%);fill-opacity:1;" />
<path d="M 183.71875 172.472656 C 189.066406 181.230469 194.066406 190.445312 198.574219 199.863281 L 200.746094 204.402344 L 203.707031 200.332031 C 208.730469 193.425781 215.269531 187.542969 222.617188 183.320312 L 226.589844 181.035156 L 222.90625 178.308594 C 216.179688 173.332031 210.976562 168.976562 206.523438 164.601562 C 198.25 156.449219 192.253906 147.800781 188.707031 138.898438 L 186.257812 132.746094 L 183.25 138.644531 C 180.078125 144.863281 175.949219 150.46875 170.984375 155.308594 L 167.75 158.464844 L 171.914062 160.222656 C 177.066406 162.394531 180.773438 167.632812 183.71875 172.472656 Z M 183.71875 172.472656 " style=" stroke:none;fill-rule:nonzero;fill:rgb(100%,82.352941%,73.333333%);fill-opacity:1;" />
<path d="M 505.535156 302.183594 L 505.933594 301.773438 L 505.121094 301.390625 L 504.578125 300.347656 L 504.054688 300.890625 L 502.148438 299.992188 C 499.0625 298.539062 495.183594 298.34375 491.796875 298.34375 L 436.890625 298.769531 L 419.21875 298.90625 L 418.96875 298.910156 L 418.972656 298.910156 L 395.019531 299.097656 L 395.019531 299.105469 L 372.90625 299.269531 L 372.910156 299.265625 L 336.644531 299.558594 L 336.585938 299.550781 L 335.011719 299.550781 L 334.117188 300.558594 L 333.992188 300.707031 C 332.425781 302.324219 330.367188 303.417969 327.511719 304.140625 L 324.691406 304.855469 L 324.570312 304.71875 L 322.96875 304.9375 C 322.710938 304.972656 322.457031 305 322.160156 305.03125 C 314.828125 305.890625 308.191406 306.542969 301.875 307.019531 L 299.53125 307.195312 L 299.527344 307.1875 L 297.507812 307.316406 C 290.167969 307.789062 283.484375 308.019531 277.082031 308.019531 C 259.628906 308.019531 244.152344 306.414062 229.769531 303.117188 L 229.4375 303.039062 L 229.097656 303.039062 L 229.105469 303.027344 L 223.789062 302.988281 C 220.101562 302.964844 216.472656 302.949219 212.882812 302.945312 L 212.886719 302.941406 L 205.597656 302.941406 C 200.464844 302.941406 195.410156 302.960938 190.4375 302.980469 L 187.648438 302.992188 L 180.242188 302.992188 L 180.269531 303.015625 C 178.019531 303.019531 175.769531 303.027344 173.484375 303.027344 C 170.464844 303.027344 167.410156 303.019531 164.316406 303.011719 L 161.476562 303 L 159.675781 302.988281 C 157.96875 302.980469 156.261719 302.964844 154.53125 302.945312 L 151.011719 302.910156 L 150.347656 316.589844 L 150.339844 316.582031 L 148.65625 350.792969 L 151.394531 351.15625 C 163.683594 352.777344 176.214844 353.597656 188.640625 353.597656 C 192.355469 353.597656 196.117188 353.523438 199.816406 353.375 C 207.054688 353.09375 214.769531 352.964844 224.09375 352.964844 C 225.257812 352.964844 228.511719 352.972656 228.511719 352.972656 L 228.539062 352.953125 L 234.75 353.019531 C 240.421875 353.078125 246.078125 353.167969 251.664062 353.257812 L 253.664062 353.289062 C 260.304688 353.390625 267.171875 353.492188 273.890625 353.539062 L 313.066406 353.769531 L 313.0625 353.761719 L 384.457031 354.183594 L 384.453125 354.183594 L 405.355469 354.308594 L 405.355469 354.3125 L 506.996094 354.914062 L 507.382812 337.449219 L 507.382812 337.445312 L 507.421875 335.652344 L 507.4375 335.007812 L 507.640625 325.480469 L 507.902344 313.769531 C 507.988281 310.21875 507.949219 306.800781 506.511719 304.050781 Z M 505.535156 302.183594 " style=" stroke:none;fill-rule:nonzero;fill:rgb(96.862745%,70.196078%,43.529412%);fill-opacity:1;" />
<path d="M 464.636719 355.730469 L 449.714844 355.636719 L 449.722656 355.644531 L 444.21875 355.609375 L 441.664062 402.6875 L 440.324219 427.257812 L 455.65625 427.515625 L 455.65625 427.503906 L 463.277344 427.636719 L 463.273438 427.640625 L 466.984375 427.703125 L 469.484375 427.746094 L 469.480469 427.742188 L 481.710938 427.9375 L 481.785156 398.636719 L 481.78125 398.636719 L 481.867188 355.835938 Z M 464.636719 355.730469 " style=" stroke:none;fill-rule:nonzero;fill:rgb(96.862745%,70.196078%,43.529412%);fill-opacity:1;" />
<path d="M 186.390625 354.65625 L 187.410156 413.730469 L 191.207031 414.480469 C 189.019531 419.617188 188.136719 424.230469 188.546875 428.484375 L 188.785156 430.996094 L 191.304688 431.1875 C 195.140625 431.480469 199.085938 431.628906 203.019531 431.628906 C 203.929688 431.628906 204.84375 431.621094 205.753906 431.609375 L 208.046875 431.570312 L 208.050781 431.582031 L 208.460938 431.5625 L 209.855469 431.539062 L 209.839844 431.496094 L 210.101562 431.484375 C 212.882812 431.355469 215.433594 431.175781 217.902344 430.945312 L 219.027344 430.839844 L 219.03125 430.855469 L 219.664062 430.777344 L 220.988281 430.65625 L 220.984375 430.621094 L 221.992188 430.496094 C 223.847656 430.273438 225.566406 430.039062 227.25 429.785156 L 229.9375 429.378906 L 228.542969 402.496094 L 228.539062 402.496094 L 226.039062 354.039062 L 223.1875 354.039062 C 220.960938 354.039062 218.742188 354.050781 216.511719 354.070312 L 214.234375 354.089844 L 214.230469 354.082031 L 213.53125 354.097656 L 212.238281 354.109375 L 212.242188 354.117188 L 212.167969 354.117188 C 209.253906 354.171875 206.359375 354.238281 203.464844 354.328125 L 200.980469 354.40625 L 200.976562 354.398438 L 199.632812 354.449219 L 198.953125 354.472656 L 198.953125 354.476562 C 196.042969 354.582031 192.929688 354.640625 189.429688 354.648438 Z M 186.390625 354.65625 " style=" stroke:none;fill-rule:nonzero;fill:rgb(96.862745%,70.196078%,43.529412%);fill-opacity:1;" />
<path d="M 337.808594 207.347656 C 336.347656 206.519531 334.707031 206.066406 333.191406 206.066406 C 331.976562 206.066406 330.84375 206.359375 329.9375 206.898438 C 327.523438 208.308594 326.214844 211.644531 326.757812 215.003906 C 327.277344 218.253906 329.1875 221.148438 330.929688 223.601562 C 331.070312 223.796875 331.214844 223.988281 331.359375 224.179688 C 331.464844 224.320312 331.570312 224.457031 331.671875 224.601562 L 333.585938 227.308594 L 346.511719 216.0625 L 344.085938 213.246094 C 342.320312 211.15625 340.324219 208.789062 337.808594 207.347656 Z M 337.808594 207.347656 " style=" stroke:none;fill-rule:nonzero;fill:rgb(92.941176%,42.745098%,40%);fill-opacity:1;" />
<path d="M 63.339844 281.183594 L 63.289062 280.847656 L 63.167969 280.53125 C 63.144531 280.476562 63.121094 280.390625 63.128906 280.308594 L 63.160156 279.953125 L 63.109375 279.601562 C 59.847656 257.304688 56.328125 235 52.648438 213.304688 C 51.722656 207.855469 50.675781 201.679688 47.644531 196.554688 C 43.40625 189.351562 35.238281 184.695312 26.839844 184.695312 L 26.113281 184.707031 C 22.378906 184.828125 18.320312 186.027344 14.691406 188.082031 L 14.597656 187.496094 L 10.53125 190.976562 C 8.449219 192.757812 6.808594 194.746094 5.652344 196.890625 C 2.933594 201.980469 4.359375 210.140625 5.519531 216.785156 C 5.910156 219.007812 6.277344 221.105469 6.476562 222.941406 C 8.839844 245.296875 11.621094 267.953125 14.75 290.28125 C 16.496094 302.773438 18.390625 315.417969 20.375 327.859375 C 21.550781 335.230469 23.148438 342.789062 28.605469 347.109375 C 30.804688 348.847656 33.535156 349.96875 36.726562 350.445312 L 38.746094 350.746094 L 38.75 350.769531 L 38.882812 350.765625 L 40.777344 351.046875 L 40.726562 350.722656 L 41.371094 350.703125 C 45.5 350.605469 49.828125 349.757812 53.515625 348.9375 C 59.628906 347.589844 65.839844 345.851562 68.664062 340.796875 C 70.746094 337.089844 70.386719 332.65625 69.746094 327.660156 C 67.777344 312.484375 65.621094 296.847656 63.339844 281.183594 Z M 63.339844 281.183594 " style=" stroke:none;fill-rule:nonzero;fill:rgb(92.941176%,42.745098%,40%);fill-opacity:1;" />
<path d="M 337.484375 231.941406 L 338.242188 232.847656 L 338.277344 232.8125 L 338.96875 233.578125 C 339.902344 234.601562 340.851562 235.59375 341.816406 236.585938 L 343.792969 238.628906 L 356.316406 227.722656 L 349.617188 219.789062 L 349.609375 219.796875 L 345.234375 214.582031 L 332.4375 225.707031 L 334.308594 228.066406 C 334.945312 228.867188 335.574219 229.660156 336.230469 230.445312 L 336.980469 231.34375 L 336.957031 231.363281 Z M 337.484375 231.941406 " style=" stroke:none;fill-rule:nonzero;fill:rgb(97.647059%,84.705882%,53.72549%);fill-opacity:1;" />
<path d="M 65.621094 410.800781 C 62.300781 406.910156 61.613281 401.410156 61.230469 396.5625 C 60.5625 388.089844 60.082031 380.980469 59.898438 373.84375 L 59.847656 371.886719 L 59.828125 369.828125 C 59.808594 367.636719 59.820312 365.574219 59.867188 363.527344 L 59.917969 361.339844 L 60.007812 359.488281 C 60.113281 357.171875 60.273438 354.800781 60.476562 352.4375 L 60.847656 348.210938 L 56.738281 349.273438 C 55.730469 349.535156 54.730469 349.769531 53.753906 349.988281 C 50.992188 350.597656 48.765625 351.019531 46.734375 351.308594 L 43.996094 351.699219 L 44.765625 364.234375 L 44.777344 364.234375 L 45.269531 372.070312 L 47.386719 406.058594 C 47.59375 409.375 47.988281 412.78125 50.242188 414.796875 C 52.300781 416.617188 55.363281 416.769531 58.070312 416.769531 L 58.65625 416.769531 C 60.601562 416.757812 62.511719 416.703125 64.289062 416.648438 L 71.207031 416.425781 L 66.3125 411.527344 C 66.082031 411.296875 65.847656 411.066406 65.621094 410.800781 Z M 65.621094 410.800781 " style=" stroke:none;fill-rule:nonzero;fill:rgb(74.901961%,78.039216%,84.705882%);fill-opacity:1;" />
<path d="M 508.960938 300.332031 C 507.054688 297.816406 504.492188 296.351562 501.8125 295.488281 L 506.546875 198.746094 C 506.59375 197.789062 506.25 196.851562 505.589844 196.152344 C 504.933594 195.453125 504.019531 195.050781 503.0625 195.039062 L 475.597656 194.695312 L 475.957031 179.605469 C 475.980469 178.652344 475.617188 177.730469 474.953125 177.050781 C 474.289062 176.371094 473.375 175.984375 472.425781 175.984375 L 472.421875 175.984375 L 431.5625 176.019531 C 430.609375 176.023438 429.699219 176.40625 429.035156 177.089844 C 428.371094 177.773438 428.007812 178.695312 428.035156 179.644531 L 430.960938 294.75 L 422.886719 294.8125 L 422.011719 283.835938 C 421.964844 283.269531 421.6875 282.75 421.242188 282.402344 C 420.796875 282.054688 420.222656 281.90625 419.667969 282.003906 L 397.953125 285.617188 C 400.542969 281.734375 402.328125 277.539062 402.585938 273.414062 C 403.269531 262.53125 397.804688 251.65625 388.667969 245.714844 C 383.910156 242.617188 378.335938 240.988281 372.722656 240.832031 L 347.191406 210.617188 C 345.207031 208.269531 342.960938 205.609375 339.832031 203.820312 C 335.863281 201.554688 331.28125 201.386719 327.871094 203.390625 C 323.988281 205.667969 321.925781 210.597656 322.738281 215.652344 C 323.367188 219.582031 325.457031 222.933594 327.621094 225.972656 C 333.929688 234.820312 341.457031 242.65625 350.003906 249.328125 C 349.886719 249.414062 349.765625 249.503906 349.648438 249.59375 C 347.757812 251.019531 345.972656 252.367188 344.089844 253.507812 C 339.597656 256.222656 335.089844 256.9375 332.035156 255.421875 C 331.472656 255.140625 330.871094 255.042969 330.285156 255.074219 C 328.46875 253.425781 326.445312 252.109375 324.273438 251.214844 C 317.464844 248.402344 310.09375 249.757812 303.59375 250.953125 L 302.015625 251.242188 C 273.824219 256.308594 244.136719 252.300781 217.75 240.859375 C 217.734375 240.582031 217.691406 240.304688 217.605469 240.03125 C 213.984375 228.46875 209.679688 217.125 204.742188 206.070312 C 210.136719 197.371094 218.0625 190.078125 227.1875 185.464844 C 227.28125 185.414062 227.363281 185.347656 227.453125 185.292969 C 229.496094 186.738281 231.539062 188.164062 233.570312 189.578125 C 238.671875 193.125 245.023438 197.542969 252.4375 198.472656 C 253.378906 198.589844 254.320312 198.648438 255.265625 198.648438 C 260.917969 198.648438 266.578125 196.578125 270.847656 192.875 C 273.445312 190.617188 275.386719 187.945312 277.265625 185.363281 C 278.1875 184.09375 279.058594 182.898438 279.992188 181.765625 C 282.046875 179.269531 285.246094 176.296875 288.8125 176.289062 L 288.824219 176.289062 C 290.242188 176.289062 291.808594 176.761719 293.472656 177.261719 C 294.632812 177.613281 295.832031 177.976562 297.121094 178.230469 C 301.464844 179.082031 306.859375 177.996094 309.101562 173.644531 C 311.054688 169.859375 309.460938 165.65625 308.9375 164.273438 C 308.269531 162.503906 307.46875 160.792969 306.691406 159.140625 C 304.964844 155.441406 303.328125 151.949219 303.464844 148.484375 C 303.582031 145.421875 305.085938 142.367188 306.679688 139.140625 C 307.039062 138.410156 307.398438 137.683594 307.742188 136.953125 C 314.082031 123.519531 315.738281 107.765625 312.410156 93.273438 C 320.207031 87.644531 325.476562 78.164062 326.027344 67.785156 C 326.664062 55.796875 321.15625 43.128906 311.292969 33.898438 C 305.730469 28.691406 298.863281 24.402344 290.875 21.144531 C 286.875 19.511719 282.789062 18.582031 278.84375 17.679688 C 275.511719 16.917969 272.363281 16.199219 269.332031 15.101562 C 268.203125 14.691406 267.136719 14.277344 266.105469 13.878906 C 261.617188 12.144531 257.378906 10.507812 251.40625 10.4375 C 246.972656 10.375 242.492188 10.8125 238.128906 11.703125 C 235.316406 12.28125 232.96875 12.796875 231.054688 13.328125 C 230.78125 11.457031 230.324219 9.546875 229.492188 7.699219 C 227.492188 3.246094 223.476562 0.230469 219.265625 0.015625 C 213.90625 -0.277344 209.636719 3.730469 207.804688 7.8125 C 207.550781 8.378906 207.332031 8.953125 207.140625 9.527344 L 206.976562 9.273438 C 206.316406 8.257812 205.414062 6.863281 203.949219 5.835938 C 200.363281 3.320312 194.972656 4.363281 192.179688 8.105469 C 190.109375 10.875 189.539062 14.832031 190.660156 18.6875 C 190.765625 19.046875 190.878906 19.398438 191.003906 19.742188 L 190.914062 19.699219 C 184.628906 16.765625 180.898438 18.253906 178.875 20.019531 C 175.140625 23.28125 175.714844 29.140625 178.589844 32.570312 C 178.996094 33.050781 179.429688 33.492188 179.882812 33.890625 C 167.132812 40.160156 157.105469 53.566406 153.867188 69.496094 C 151.585938 80.695312 152.207031 92.898438 155.761719 106.792969 C 156.109375 108.152344 156.425781 109.546875 156.746094 110.941406 C 158.726562 119.574219 160.96875 129.359375 170.628906 134.261719 C 173.464844 135.699219 176.527344 136.507812 179.652344 136.75 C 176.261719 143.410156 171.597656 149.460938 165.996094 154.398438 C 165.425781 154.902344 165.054688 155.558594 164.894531 156.261719 C 160.734375 156.703125 156.898438 158.546875 153.519531 160.34375 C 112.511719 182.136719 80.261719 220.160156 64.890625 263.984375 C 62.289062 246.804688 59.542969 229.652344 56.652344 212.628906 C 55.671875 206.835938 54.554688 200.269531 51.152344 194.492188 C 46.003906 185.75 36.105469 180.304688 25.980469 180.648438 C 16.242188 180.964844 6.410156 186.859375 2.066406 194.976562 C -1.328125 201.320312 0.179688 209.894531 1.507812 217.460938 C 1.890625 219.621094 2.246094 221.664062 2.429688 223.371094 C 4.800781 245.789062 7.59375 268.492188 10.722656 290.84375 C 12.472656 303.328125 14.367188 315.996094 16.359375 328.496094 C 17.660156 336.660156 19.480469 345.070312 26.078125 350.300781 C 30.226562 353.589844 35.085938 354.734375 40.109375 354.796875 L 43.328125 406.308594 C 43.519531 409.390625 43.84375 414.546875 47.539062 417.832031 C 50.691406 420.632812 54.839844 420.84375 57.871094 420.84375 C 58.152344 420.84375 58.425781 420.84375 58.6875 420.839844 C 62.941406 420.8125 67.152344 420.625 71.222656 420.445312 C 75.238281 420.265625 79.386719 420.082031 83.515625 420.054688 C 84.082031 420.050781 84.605469 419.902344 85.078125 419.664062 C 85.578125 419.65625 86.050781 419.644531 86.496094 419.636719 L 183.402344 417.394531 L 183.644531 431.429688 C 183.675781 433.21875 185.039062 434.703125 186.820312 434.886719 C 192.25 435.441406 197.695312 435.71875 203.140625 435.71875 C 205.652344 435.71875 208.167969 435.652344 210.675781 435.535156 C 210.8125 435.566406 210.953125 435.582031 211.09375 435.582031 C 211.296875 435.582031 211.5 435.539062 211.699219 435.480469 C 218.199219 435.132812 224.679688 434.398438 231.105469 433.261719 C 232.863281 432.953125 234.113281 431.382812 234.019531 429.601562 L 230.269531 357.054688 C 237.429688 357.101562 244.5625 357.210938 251.597656 357.324219 C 258.902344 357.441406 266.449219 357.5625 273.875 357.605469 L 439.984375 358.585938 L 436.238281 427.589844 C 436.183594 428.546875 436.527344 429.484375 437.179688 430.191406 C 437.835938 430.894531 438.75 431.296875 439.707031 431.316406 L 482.191406 432.019531 L 482.25 432.019531 C 483.171875 432.019531 484.0625 431.65625 484.722656 431.007812 C 485.398438 430.347656 485.78125 429.441406 485.785156 428.492188 L 485.929688 358.855469 L 507.492188 358.984375 L 507.511719 358.984375 C 509.433594 358.984375 511.003906 357.449219 511.046875 355.527344 L 511.972656 313.859375 C 512.054688 310.164062 512.175781 304.585938 508.960938 300.332031 Z M 475.429688 201.765625 L 499.308594 202.0625 L 498.5 218.546875 L 475.007812 219.375 Z M 474.914062 223.421875 L 498.304688 222.597656 L 495.914062 271.4375 L 473.742188 272.375 Z M 473.644531 276.421875 L 495.714844 275.488281 L 494.792969 294.328125 C 493.410156 294.261719 492.136719 294.269531 491.078125 294.277344 L 473.214844 294.417969 Z M 468.804688 183.058594 L 468.425781 198.933594 L 435.632812 200.410156 L 435.195312 183.085938 Z M 466.25 281.269531 C 466.230469 281.269531 466.214844 281.269531 466.199219 281.273438 L 437.707031 281.976562 L 436.066406 217.472656 L 468.035156 215.351562 L 466.460938 281.292969 C 466.390625 281.285156 466.320312 281.269531 466.25 281.269531 Z M 466.363281 285.300781 L 466.144531 294.472656 L 438.03125 294.691406 L 437.8125 286.011719 L 466.296875 285.308594 C 466.320312 285.308594 466.339844 285.304688 466.363281 285.300781 Z M 435.964844 213.429688 L 435.734375 204.449219 L 468.328125 202.980469 L 468.128906 211.296875 Z M 418.160156 286.347656 L 418.839844 294.84375 L 389.539062 295.070312 C 391.199219 293.621094 392.820312 292.023438 394.328125 290.3125 Z M 333.378906 221.867188 C 331.828125 219.691406 330.136719 217.148438 329.71875 214.53125 C 329.382812 212.429688 330.125 210.261719 331.449219 209.484375 C 332.644531 208.78125 334.601562 208.972656 336.328125 209.957031 C 338.371094 211.125 340.109375 213.183594 341.792969 215.175781 L 342.289062 215.761719 L 334.125 222.867188 C 333.878906 222.53125 333.621094 222.207031 333.378906 221.867188 Z M 338.53125 228.515625 C 337.863281 227.722656 337.21875 226.90625 336.574219 226.089844 L 344.894531 218.847656 L 346.734375 221.023438 Z M 341.191406 231.554688 L 349.339844 224.109375 L 352.121094 227.402344 L 343.96875 234.496094 C 343.027344 233.53125 342.097656 232.554688 341.191406 231.554688 Z M 346.867188 237.332031 L 354.730469 230.488281 L 364.246094 241.75 C 361.988281 242.316406 359.785156 243.121094 357.703125 244.207031 C 357.160156 244.488281 356.644531 244.796875 356.125 245.101562 C 352.886719 242.683594 349.792969 240.09375 346.867188 237.332031 Z M 347.75 259.558594 C 349.945312 258.226562 351.964844 256.707031 353.914062 255.230469 C 356.289062 253.4375 358.535156 251.742188 360.964844 250.476562 C 368.300781 246.664062 377.882812 247.125 384.8125 251.636719 C 391.742188 256.144531 396.050781 264.71875 395.535156 272.96875 C 395.132812 279.375 387.242188 290.148438 377.28125 294.980469 C 377.171875 295.035156 377.078125 295.105469 376.972656 295.167969 L 339.886719 295.457031 C 340.640625 292.070312 340.515625 288.644531 340.425781 286.160156 C 340.1875 279.855469 339.945312 273.335938 337.820312 266.984375 C 337.386719 265.6875 336.878906 264.445312 336.304688 263.261719 C 339.960938 263.136719 343.886719 261.890625 347.75 259.558594 Z M 321.578125 257.746094 C 325.78125 259.480469 329.257812 263.664062 331.117188 269.226562 C 332.917969 274.613281 333.140625 280.617188 333.359375 286.425781 C 333.523438 290.847656 333.480469 295.375 331.066406 297.878906 C 329.042969 299.980469 325.476562 300.546875 321.695312 300.988281 C 318.253906 301.390625 314.679688 301.78125 310.996094 302.144531 C 312.902344 287.265625 311.101562 271.75 305.8125 257.730469 C 311.328125 256.726562 316.957031 255.839844 321.578125 257.746094 Z M 301.757812 258.441406 C 307.136719 272.316406 308.925781 287.773438 306.875 302.527344 C 303.347656 302.839844 299.730469 303.113281 296.035156 303.339844 C 298.429688 288.867188 297.394531 273.640625 293.039062 259.644531 C 295.957031 259.332031 298.863281 258.929688 301.757812 258.441406 Z M 301.351562 133.9375 C 301.023438 134.628906 300.683594 135.320312 300.34375 136.011719 C 298.578125 139.589844 296.582031 143.640625 296.402344 148.207031 C 296.203125 153.390625 298.28125 157.835938 300.292969 162.132812 C 301.042969 163.738281 301.753906 165.253906 302.332031 166.777344 C 303.15625 168.957031 303.054688 169.953125 302.820312 170.40625 C 302.371094 171.273438 300.421875 171.671875 298.480469 171.289062 C 297.539062 171.105469 296.558594 170.808594 295.519531 170.496094 C 293.535156 169.894531 291.289062 169.21875 288.828125 169.21875 L 288.796875 169.21875 C 283.800781 169.230469 278.871094 172.011719 274.539062 177.269531 C 273.46875 178.566406 272.496094 179.90625 271.550781 181.203125 C 269.828125 183.570312 268.203125 185.808594 266.214844 187.535156 C 262.726562 190.566406 257.910156 192.027344 253.320312 191.457031 C 247.632812 190.742188 242.308594 187.039062 237.609375 183.773438 C 227.898438 177.019531 217.859375 170.035156 209.382812 161.695312 C 200.703125 153.15625 194.722656 144.15625 191.570312 134.914062 C 195 133.574219 198.257812 131.558594 201.097656 128.882812 C 202.875 130.53125 204.878906 131.65625 206.980469 132.152344 C 209.394531 132.722656 213.105469 132.746094 217.058594 129.613281 C 218.589844 128.402344 218.84375 126.179688 217.632812 124.648438 C 216.417969 123.121094 214.195312 122.863281 212.667969 124.074219 C 211.257812 125.195312 209.925781 125.589844 208.605469 125.273438 C 206.527344 124.785156 204.410156 122.605469 202.933594 119.453125 C 200.261719 113.726562 202.667969 106.613281 206.242188 102.101562 C 209.238281 98.320312 212.972656 95.902344 216.753906 95.289062 C 220.6875 94.65625 224.839844 96.300781 226.628906 99.210938 C 228.957031 103 227.570312 108.371094 226.539062 111.234375 C 225.933594 112.910156 225.210938 114.554688 224.445312 116.289062 C 223.058594 119.433594 221.628906 122.6875 220.878906 126.277344 C 219.710938 131.851562 220.515625 139.832031 226.605469 144 C 228.84375 145.53125 231.351562 146.203125 233.882812 146.203125 C 239.398438 146.203125 245.027344 143 248.253906 138.476562 C 252.226562 132.894531 253.269531 126.300781 254.273438 119.925781 L 254.46875 118.707031 C 255.355469 113.179688 256.628906 106.953125 260.550781 103.066406 C 264.355469 99.300781 270.613281 97.695312 279.667969 98.144531 C 281.230469 98.226562 282.804688 98.34375 284.375 98.460938 C 290.8125 98.941406 297.460938 99.4375 303.988281 97.472656 C 304.644531 97.273438 305.289062 97.039062 305.925781 96.792969 C 308.335938 109.214844 306.742188 122.515625 301.351562 133.9375 Z M 173.828125 127.953125 C 167.121094 124.554688 165.429688 117.175781 163.640625 109.363281 C 163.308594 107.90625 162.972656 106.457031 162.609375 105.039062 C 159.328125 92.203125 158.734375 81.035156 160.792969 70.90625 C 163.578125 57.238281 173.480469 41.742188 189.335938 37.933594 C 190.847656 37.566406 191.941406 36.257812 192.035156 34.707031 C 192.128906 33.15625 191.195312 31.722656 189.738281 31.183594 C 187.640625 30.402344 185.261719 29.519531 184.007812 28.023438 C 183.234375 27.101562 183.144531 25.679688 183.527344 25.34375 C 183.992188 24.9375 185.566406 25 187.925781 26.101562 L 188.277344 26.269531 C 191.109375 27.597656 194.988281 29.414062 198.984375 27.875 C 199.984375 27.488281 200.757812 26.664062 201.082031 25.640625 C 201.40625 24.617188 201.246094 23.5 200.648438 22.609375 C 199.363281 20.695312 198.035156 18.714844 197.453125 16.714844 C 196.957031 15.003906 197.105469 13.324219 197.847656 12.332031 C 198.390625 11.605469 199.523438 11.363281 199.898438 11.621094 C 200.234375 11.859375 200.6875 12.558594 201.050781 13.117188 L 206.460938 21.476562 C 207.304688 22.777344 208.898438 23.375 210.394531 22.953125 C 211.886719 22.53125 212.929688 21.183594 212.960938 19.628906 C 213.03125 16.515625 213.101562 13.292969 214.261719 10.703125 C 215.105469 8.824219 216.980469 7.003906 218.90625 7.074219 C 220.453125 7.152344 222.15625 8.601562 223.050781 10.59375 C 224.109375 12.949219 224.277344 15.886719 224.4375 18.722656 C 224.4375 18.726562 224.4375 18.726562 224.4375 18.726562 C 224.4375 18.726562 224.4375 18.730469 224.4375 18.730469 C 224.550781 20.675781 226.191406 22.164062 228.167969 22.058594 C 229.074219 22.007812 229.882812 21.617188 230.476562 21.019531 C 232.039062 20.386719 236.742188 19.203125 239.554688 18.625 C 243.421875 17.832031 247.386719 17.4375 251.332031 17.503906 C 256.027344 17.558594 259.351562 18.84375 263.558594 20.46875 C 264.636719 20.886719 265.75 21.316406 266.929688 21.742188 C 270.371094 22.992188 273.878906 23.792969 277.273438 24.566406 C 281.117188 25.441406 284.742188 26.273438 288.210938 27.6875 C 295.398438 30.617188 301.539062 34.441406 306.46875 39.054688 C 314.828125 46.878906 319.503906 57.476562 318.976562 67.40625 C 318.535156 75.726562 314.097656 83.484375 307.777344 87.847656 C 307.625 87.867188 307.476562 87.882812 307.328125 87.925781 C 306.515625 88.148438 305.867188 88.648438 305.414062 89.285156 C 304.300781 89.859375 303.144531 90.339844 301.953125 90.699219 C 296.679688 92.285156 290.957031 91.859375 284.902344 91.40625 C 283.273438 91.285156 281.644531 91.164062 280.027344 91.082031 C 268.859375 90.515625 260.871094 92.796875 255.574219 98.039062 C 250.398438 103.171875 248.628906 110.464844 247.488281 117.585938 L 247.292969 118.820312 C 246.375 124.644531 245.507812 130.144531 242.496094 134.367188 C 239.800781 138.15625 234.136719 140.582031 230.59375 138.160156 C 227.585938 136.101562 227.023438 131.433594 227.796875 127.722656 C 228.398438 124.855469 229.621094 122.078125 230.914062 119.136719 C 231.695312 117.367188 232.503906 115.53125 233.1875 113.628906 C 234.976562 108.671875 236.335938 101.5 232.648438 95.507812 C 229.792969 90.859375 224.359375 88.074219 218.542969 88.074219 C 217.578125 88.074219 216.601562 88.148438 215.625 88.308594 C 210.097656 89.203125 204.796875 92.542969 200.703125 97.707031 C 194.695312 105.292969 193.058594 115 196.535156 122.441406 C 196.640625 122.675781 196.753906 122.90625 196.871094 123.132812 C 190.445312 129.640625 181.074219 131.625 173.828125 127.953125 Z M 185.921875 140.003906 C 189.617188 149.296875 195.816406 158.265625 204.425781 166.734375 C 209.628906 171.855469 215.3125 176.421875 221.121094 180.71875 C 213.382812 185.171875 206.535156 191.335938 201.273438 198.570312 C 196.746094 189.109375 191.746094 179.871094 186.285156 170.910156 C 182.992188 165.511719 178.90625 159.917969 173.082031 157.453125 C 178.269531 152.398438 182.628906 146.457031 185.921875 140.003906 Z M 41.308594 347.882812 C 37.425781 347.992188 33.640625 347.277344 30.46875 344.761719 C 25.863281 341.109375 24.421875 334.175781 23.339844 327.382812 C 21.355469 314.925781 19.464844 302.300781 17.722656 289.863281 C 14.605469 267.589844 11.824219 244.96875 9.457031 222.628906 C 9.25 220.679688 8.875 218.523438 8.472656 216.238281 C 7.394531 210.117188 6.058594 202.5 8.300781 198.308594 C 10.042969 195.046875 12.867188 193.507812 15.910156 191.679688 C 19.394531 189.582031 21.828125 187.855469 26.214844 187.710938 C 26.421875 187.703125 26.628906 187.699219 26.839844 187.699219 C 34.109375 187.699219 41.375 191.8125 45.0625 198.078125 C 47.804688 202.730469 48.804688 208.617188 49.6875 213.808594 C 53.410156 235.742188 56.898438 257.886719 60.140625 280.035156 C 60.09375 280.585938 60.179688 281.125 60.371094 281.617188 C 62.632812 297.117188 64.773438 312.617188 66.769531 328.046875 C 67.34375 332.488281 67.683594 336.40625 66.050781 339.324219 C 63.832031 343.292969 58.324219 344.804688 52.871094 346.011719 C 49.277344 346.808594 45.242188 347.769531 41.308594 347.882812 Z M 58.636719 413.773438 C 56.011719 413.789062 53.542969 413.707031 52.234375 412.550781 C 50.832031 411.300781 50.550781 408.566406 50.382812 405.867188 C 49.976562 399.441406 49.578125 393.015625 49.175781 386.589844 C 48.886719 381.933594 49.246094 377.472656 48.800781 372.828125 C 48.203125 366.652344 47.546875 360.476562 47.15625 354.28125 C 49.609375 353.929688 52.046875 353.4375 54.398438 352.914062 C 55.417969 352.6875 56.453125 352.445312 57.492188 352.175781 C 56.171875 366.960938 57.078125 382.03125 58.238281 396.796875 C 58.65625 402.113281 59.429688 408.167969 63.339844 412.742188 C 63.609375 413.0625 63.898438 413.359375 64.191406 413.648438 C 62.34375 413.714844 60.492188 413.757812 58.636719 413.773438 Z M 125.46875 411.046875 C 125.394531 411.25 125.367188 411.460938 125.359375 411.664062 L 86.332031 412.566406 C 79.773438 412.726562 72.441406 412.515625 68.714844 408.152344 C 66.183594 405.191406 65.632812 400.644531 65.289062 396.242188 C 64.015625 380.027344 63.113281 365.277344 64.863281 349.523438 C 67.855469 348.003906 70.476562 345.898438 72.21875 342.777344 C 75.128906 337.582031 74.347656 331.546875 73.777344 327.140625 C 71.765625 311.570312 69.601562 295.925781 67.320312 280.285156 C 79.679688 232.296875 113.082031 189.839844 156.839844 166.582031 C 160.320312 164.734375 164.34375 162.800781 168.011719 163.316406 C 173.179688 164.035156 177.097656 169.421875 180.25 174.589844 C 192.175781 194.15625 201.875 215.058594 209.128906 236.796875 C 194.027344 229.085938 180.257812 218.851562 168.820312 206.410156 C 167.496094 204.972656 165.261719 204.882812 163.824219 206.203125 C 162.390625 207.523438 162.296875 209.757812 163.617188 211.195312 C 194.921875 245.234375 242.828125 263.578125 288.921875 260.027344 C 293.402344 273.9375 294.4375 289.167969 291.902344 303.570312 C 272.914062 304.496094 252.179688 303.894531 232.019531 299.449219 C 231.519531 299.171875 230.957031 298.992188 230.34375 298.984375 C 230.207031 298.984375 230.074219 298.984375 229.9375 298.980469 C 229.003906 298.761719 228.066406 298.535156 227.132812 298.300781 C 225.160156 297.800781 223.152344 297.296875 221.117188 296.789062 C 190.921875 289.234375 156.695312 280.675781 142.640625 255.777344 C 141.679688 254.074219 139.523438 253.480469 137.824219 254.4375 C 136.125 255.394531 135.523438 257.550781 136.484375 259.25 C 138.640625 263.074219 141.230469 266.53125 144.148438 269.695312 C 128.070312 292.15625 120.300781 320.625 122.8125 348.136719 C 123.371094 354.230469 124.410156 360.441406 125.417969 366.453125 C 128.050781 382.160156 130.539062 397 125.46875 411.046875 Z M 129.542969 411.570312 C 134.574219 396.769531 131.957031 381.023438 129.402344 365.785156 C 128.40625 359.847656 127.378906 353.710938 126.835938 347.765625 C 124.433594 321.445312 131.773438 294.210938 147.019531 272.621094 C 161.011719 285.925781 181.34375 293.375 201.066406 298.875 C 197.476562 298.882812 193.925781 298.894531 190.414062 298.910156 C 177.707031 298.957031 164.566406 299.007812 150.554688 298.832031 L 150.511719 298.832031 C 148.628906 298.832031 147.074219 300.3125 146.980469 302.195312 L 144.570312 351.0625 C 144.484375 352.886719 145.792969 354.476562 147.601562 354.734375 C 159.089844 356.386719 170.726562 357.328125 182.375 357.578125 L 183.28125 410.324219 Z M 225.867188 428.71875 C 224.457031 428.722656 223.046875 428.726562 221.636719 428.730469 C 211.070312 428.769531 200.507812 428.804688 189.941406 428.84375 C 190.125 405.097656 189.847656 381.402344 189.441406 357.648438 C 199.558594 357.621094 209.582031 360.414062 219.519531 357.328125 C 220.464844 357.035156 221.515625 356.703125 222.410156 357.132812 C 225.328125 358.53125 224.160156 364.921875 224.179688 367.34375 C 224.226562 373.175781 224.0625 378.914062 224.496094 384.75 C 225.601562 399.617188 226.269531 413.828125 225.867188 428.71875 Z M 478.820312 379.171875 C 478.808594 385.964844 478.792969 392.746094 478.777344 399.527344 C 478.757812 407.980469 478.738281 416.429688 478.722656 424.890625 C 475.019531 424.832031 443.574219 423.863281 443.636719 424.367188 C 443 419.035156 447.132812 358.625 447.066406 358.625 C 453.382812 358.664062 459.652344 359.351562 465.949219 359.746094 C 470.421875 360.03125 474.402344 358.707031 478.863281 358.816406 C 478.84375 365.585938 478.835938 372.390625 478.820312 379.171875 Z M 506.367188 318.808594 C 505.351562 329.867188 504.296875 340.832031 504.054688 351.894531 C 500.953125 351.894531 497.84375 351.855469 494.738281 351.839844 C 460.503906 351.636719 426.277344 351.34375 392.074219 351.34375 C 349.515625 351.34375 307.007812 349.066406 264.40625 349.78125 C 245.445312 350.097656 226.484375 350.757812 207.519531 350.492188 C 188.855469 350.234375 170.410156 350.632812 151.789062 348.179688 C 152.484375 334.097656 153.179688 320.019531 153.875 305.941406 C 166.964844 306.070312 180.09375 305.960938 193.179688 306.371094 C 203.058594 306.679688 212.667969 304.605469 222.683594 305.417969 C 233.382812 306.289062 243.929688 308.386719 254.585938 309.589844 C 268.816406 311.199219 283.675781 311.242188 297.902344 310.898438 C 312.230469 310.554688 325.710938 304.808594 339.816406 302.941406 C 346.304688 302.082031 352.875 302.046875 359.421875 302.011719 C 384.566406 301.882812 409.714844 301.796875 434.863281 301.679688 C 447.570312 301.621094 460.277344 301.558594 472.984375 301.476562 C 478.679688 301.4375 484.355469 301.523438 489.984375 301.785156 C 494.78125 302.007812 500.132812 301.25 503.777344 305.160156 C 505.894531 307.425781 506.539062 310.488281 506.609375 313.660156 C 506.652344 315.382812 506.523438 317.132812 506.367188 318.808594 Z M 506.367188 318.808594 " style=" stroke:none;fill-rule:nonzero;fill:rgb(0%,0%,0%);fill-opacity:1;" />
<path d="M 218.585938 102.808594 C 216.460938 100.636719 213.210938 99.945312 210.6875 101.136719 C 209.679688 101.613281 209.246094 102.816406 209.722656 103.824219 C 210.199219 104.835938 211.402344 105.265625 212.410156 104.792969 C 213.371094 104.339844 214.785156 104.699219 215.695312 105.628906 C 216.628906 106.585938 217.175781 108.09375 217.230469 109.871094 C 217.253906 110.582031 217.203125 111.3125 217.105469 112.050781 C 216.042969 111.542969 214.855469 111.289062 213.660156 111.359375 C 211.050781 111.496094 208.65625 113.117188 207.554688 115.484375 C 207.085938 116.496094 207.523438 117.695312 208.535156 118.164062 C 208.8125 118.292969 209.101562 118.355469 209.386719 118.355469 C 210.148438 118.355469 210.875 117.921875 211.21875 117.183594 C 211.683594 116.1875 212.773438 115.449219 213.875 115.390625 C 215 115.316406 216.140625 115.949219 216.707031 116.890625 C 217.132812 117.597656 217.941406 117.972656 218.765625 117.84375 C 219.582031 117.707031 220.230469 117.089844 220.410156 116.28125 C 220.867188 114.195312 221.339844 112.039062 221.269531 109.742188 C 221.179688 106.953125 220.226562 104.488281 218.585938 102.808594 Z M 218.585938 102.808594 " style=" stroke:none;fill-rule:nonzero;fill:rgb(0%,0%,0%);fill-opacity:1;" />
<path d="M 369.304688 255.710938 C 370.492188 255.351562 371.882812 255.554688 372.925781 256.226562 C 373.96875 256.902344 374.71875 258.089844 374.886719 259.320312 C 375.019531 260.335938 375.886719 261.074219 376.882812 261.074219 C 376.972656 261.074219 377.0625 261.066406 377.152344 261.054688 C 378.257812 260.90625 379.039062 259.890625 378.890625 258.785156 C 378.566406 256.382812 377.160156 254.15625 375.121094 252.835938 C 373.082031 251.515625 370.476562 251.144531 368.148438 251.839844 C 367.082031 252.15625 366.472656 253.28125 366.792969 254.351562 C 367.109375 255.421875 368.234375 256.023438 369.304688 255.710938 Z M 369.304688 255.710938 " style=" stroke:none;fill-rule:nonzero;fill:rgb(0%,0%,0%);fill-opacity:1;" />
<path d="M 381.257812 267.734375 C 383.203125 268.148438 384.714844 270.316406 384.425781 272.285156 C 384.265625 273.386719 385.03125 274.414062 386.132812 274.574219 C 386.234375 274.589844 386.332031 274.59375 386.429688 274.59375 C 387.414062 274.59375 388.277344 273.871094 388.425781 272.867188 C 389.015625 268.796875 386.121094 264.636719 382.101562 263.78125 C 381.007812 263.550781 379.9375 264.246094 379.703125 265.335938 C 379.46875 266.429688 380.167969 267.5 381.257812 267.734375 Z M 381.257812 267.734375 " style=" stroke:none;fill-rule:nonzero;fill:rgb(0%,0%,0%);fill-opacity:1;" />
</g>
</svg>